<svg width="48" height="48" viewBox="0 0 48 48" fill="none" xmlns="http://www.w3.org/2000/svg">
<path d="M24 4C35.028 4 44 12.972 44 24C44 35.028 35.028 44 24 44C12.972 44 4 35.028 4 24C4 12.972 12.972 4 24 4ZM24 0C10.746 0 0 10.746 0 24C0 37.254 10.746 48 24 48C37.254 48 48 37.254 48 24C48 10.746 37.254 0 24 0ZM24 14.164C27.204 14.164 27.584 14.176 28.85 14.234C32.104 14.382 33.62 15.924 33.77 19.152C33.826 20.418 33.838 20.796 33.838 24C33.838 27.204 33.826 27.584 33.77 28.848C33.62 32.074 32.106 33.62 28.85 33.768C27.584 33.824 27.206 33.838 24 33.838C20.796 33.838 20.416 33.826 19.152 33.768C15.892 33.618 14.382 32.07 14.232 28.848C14.176 27.584 14.162 27.204 14.162 24C14.162 20.796 14.176 20.416 14.232 19.152C14.38 15.922 15.896 14.38 19.152 14.232C20.416 14.174 20.796 14.164 24 14.164ZM24 12C20.74 12 20.334 12.014 19.052 12.074C14.692 12.274 12.272 14.692 12.072 19.052C12.014 20.334 12 20.742 12 24C12 27.26 12.014 27.668 12.072 28.948C12.272 33.306 14.692 35.728 19.052 35.928C20.334 35.986 20.74 36 24 36C27.26 36 27.668 35.986 28.95 35.928C33.302 35.728 35.732 33.31 35.928 28.948C35.986 27.668 36 27.26 36 24C36 20.742 35.986 20.334 35.928 19.052C35.732 14.698 33.31 12.272 28.95 12.074C27.668 12.014 27.26 12 24 12ZM24 17.838C20.598 17.838 17.838 20.596 17.838 24C17.838 27.404 20.598 30.162 24 30.162C27.402 30.162 30.162 27.404 30.162 24C30.162 20.598 27.402 17.838 24 17.838ZM24 28C21.79 28 20 26.21 20 24C20 21.792 21.79 20 24 20C26.208 20 28.002 21.79 28.002 24C28.002 26.21 26.208 28 24 28ZM30.404 16.156C29.61 16.156 28.964 16.8 28.964 17.596C28.964 18.39 29.608 19.036 30.404 19.036C31.2 19.036 31.846 18.392 31.846 17.596C31.846 16.8 31.202 16.156 30.404 16.156Z" fill="#FDD0CD"/>
</svg>
