<svg width="30" height="36" viewBox="0 0 30 36" fill="none" xmlns="http://www.w3.org/2000/svg">
<g clip-path="url(#clip0_46_16)">
<path d="M13.75 36H2.5V18H13.75V36ZM13.75 9H0V15H13.75V9ZM16.25 36H27.5V18H16.25V36ZM16.25 9V15H30V9H16.25ZM21.7112 0C18.0275 0 15.8725 5.2155 15 7.5H21.6812C26.0475 7.5 26.0937 0 21.7112 0ZM20.7162 5.4315H18.1625C19.0862 3.75 19.9612 2.4825 21.09 2.4825C22.555 2.4825 22.625 5.4315 20.7162 5.4315ZM8.31875 7.5H15C14.1275 5.2155 11.9725 0 8.28875 0C3.90625 0 3.9525 7.5 8.31875 7.5ZM8.91 2.4825C10.0387 2.4825 10.9138 3.75 11.8375 5.4315H9.28375C7.375 5.4315 7.445 2.4825 8.91 2.4825Z" fill="#D0B099"/>
</g>
<defs>
<clipPath id="clip0_46_16">
<rect width="30" height="36" fill="white"/>
</clipPath>
</defs>
</svg>
