<svg width="48" height="48" viewBox="0 0 48 48" fill="none" xmlns="http://www.w3.org/2000/svg">
<g clip-path="url(#clip0_4_44)">
<path d="M24 4C35.028 4 44 12.972 44 24C44 35.028 35.028 44 24 44C12.972 44 4 35.028 4 24C4 12.972 12.972 4 24 4ZM24 0C10.746 0 0 10.746 0 24C0 37.254 10.746 48 24 48C37.254 48 48 37.254 48 24C48 10.746 37.254 0 24 0Z" fill="#FDD0CD"/>
<path d="M27.8965 31.0102C27.928 30.8272 27.7974 30.5918 27.633 30.1995C27.467 29.8091 26.6491 27.9016 26.4667 27.5818C26.2859 27.2602 26.1336 27.0505 25.6947 27.1803C25.2541 27.3121 24.144 27.5041 23.8103 27.5605C23.4764 27.6133 23.2877 27.4979 23.1233 27.1056C22.9573 26.7152 22.2906 25.6216 22.0307 23.6915C21.8289 22.189 22.0617 20.7391 22.1394 20.3043C22.2187 19.8676 22.5035 19.8375 22.7706 19.8128L23.6369 19.6652L24.3396 19.42C24.6017 19.3065 24.6981 19.0938 24.7496 18.887L25.6982 15.9588C25.9465 15.188 25.6429 15.0669 25.4745 14.9079L24.9307 14.4251C24.7384 14.2628 24.3641 14.0719 23.8517 14.143C23.3392 14.2141 21.9952 14.2932 20.7753 15.7381C19.5572 17.1811 19.4122 19.4489 19.3928 19.7673C19.3716 20.084 18.7618 24.6439 20.584 28.3562C21.0165 29.2386 21.4012 29.8744 21.7074 30.3627C22.2104 31.1695 22.8663 31.6691 23.4269 32.0139C24.052 32.3963 25.7322 32.7464 26.5513 32.2648C27.3701 31.7795 27.8651 31.1933 27.8965 31.0102Z" fill="#FDD0CD"/>
</g>
<defs>
<clipPath id="clip0_4_44">
<rect width="48" height="48" fill="white"/>
</clipPath>
</defs>
</svg>
