<svg width="48" height="48" viewBox="0 0 48 48" fill="none" xmlns="http://www.w3.org/2000/svg">
<g clip-path="url(#clip0_4_26)">
<path d="M24 4C35.028 4 44 12.972 44 24C44 35.028 35.028 44 24 44C12.972 44 4 35.028 4 24C4 12.972 12.972 4 24 4ZM24 0C10.746 0 0 10.746 0 24C0 37.254 10.746 48 24 48C37.254 48 48 37.254 48 24C48 10.746 37.254 0 24 0ZM12.058 36L13.746 29.838C12.706 28.034 12.158 25.988 12.158 23.892C12.16 17.334 17.494 12 24.05 12C27.232 12.002 30.218 13.24 32.462 15.488C34.708 17.736 35.944 20.724 35.942 23.902C35.94 30.46 30.604 35.794 24.05 35.794C22.06 35.794 20.098 35.294 18.362 34.346L12.058 36ZM18.654 32.194C20.33 33.188 21.93 33.786 24.046 33.786C29.494 33.786 33.932 29.352 33.934 23.902C33.936 18.44 29.518 14.012 24.054 14.01C18.602 14.01 14.168 18.444 14.166 23.894C14.166 26.118 14.818 27.786 15.912 29.528L14.914 33.176L18.654 32.194ZM30.042 26.73C29.968 26.606 29.77 26.532 29.472 26.382C29.174 26.234 27.714 25.514 27.442 25.416C27.17 25.316 26.972 25.268 26.774 25.564C26.576 25.862 26.006 26.53 25.834 26.73C25.66 26.928 25.488 26.954 25.19 26.804C24.892 26.656 23.936 26.342 22.8 25.33C21.916 24.542 21.32 23.568 21.146 23.272C20.972 22.974 21.128 22.814 21.276 22.666L21.722 22.146L22.02 21.65C22.12 21.452 22.07 21.278 21.996 21.13L21.08 18.924C20.838 18.344 20.594 18.424 20.412 18.414L19.84 18.4C19.642 18.4 19.32 18.474 19.048 18.772C18.776 19.07 18.008 19.788 18.008 21.252C18.008 22.714 19.072 24.128 19.222 24.326C19.37 24.524 21.318 27.526 24.298 28.812C25.006 29.118 25.56 29.302 25.992 29.438C26.704 29.664 27.352 29.632 27.864 29.556C28.434 29.47 29.622 28.838 29.87 28.144C30.116 27.448 30.116 26.854 30.042 26.73Z" fill="#FDD0CD"/>
</g>
<defs>
<clipPath id="clip0_4_26">
<rect width="48" height="48" fill="white"/>
</clipPath>
</defs>
</svg>
